<?xml version="1.0" standalone="no"?>
<!DOCTYPE svg PUBLIC "-//W3C//DTD SVG 20010904//EN"
 "http://www.w3.org/TR/2001/REC-SVG-20010904/DTD/svg10.dtd">
<svg version="1.0" xmlns="http://www.w3.org/2000/svg"
 width="640.000000pt" height="1280.000000pt" viewBox="0 0 640.000000 1280.000000"
 preserveAspectRatio="xMidYMid meet">
<g transform="translate(0.000000,1280.000000) scale(0.100000,-0.100000)"
fill="#607d8b" stroke="none">
<path d="M2205 12780 c-22 -11 -47 -20 -56 -20 -42 0 -83 -87 -56 -118 8 -9
22 -34 30 -54 19 -45 45 -63 149 -99 97 -34 134 -36 168 -9 34 27 84 25 204
-6 56 -15 102 -27 103 -28 1 -1 -13 -42 -32 -91 -18 -50 -45 -134 -61 -187
-15 -54 -32 -98 -38 -98 -5 0 -51 20 -102 45 -86 42 -92 47 -112 93 -19 43
-28 52 -79 75 -32 14 -83 33 -114 42 -54 15 -59 15 -108 -5 -29 -11 -60 -20
-71 -20 -40 0 -81 -96 -50 -115 6 -4 17 -22 25 -40 17 -43 58 -68 158 -100 94
-30 123 -31 162 -5 17 11 44 20 60 20 32 0 189 -36 210 -48 10 -5 1 -49 -40
-196 -30 -103 -55 -190 -57 -191 -6 -6 -168 63 -197 84 -16 11 -36 39 -45 61
-20 50 -55 72 -165 107 -73 23 -88 25 -115 14 -17 -7 -50 -17 -73 -23 -26 -6
-51 -20 -63 -35 -22 -28 -27 -68 -10 -78 6 -4 18 -24 26 -45 19 -46 37 -59
129 -92 109 -40 149 -44 189 -19 18 12 49 21 68 21 33 0 226 -44 235 -54 5 -5
-87 -337 -96 -348 -9 -9 -180 67 -208 94 -14 13 -32 40 -40 61 -17 42 -41 57
-147 93 -77 27 -107 29 -138 13 -12 -6 -41 -16 -66 -23 -35 -8 -50 -19 -65
-44 l-20 -33 28 -55 c36 -72 59 -88 171 -124 111 -35 120 -36 159 -10 40 27
100 26 209 -4 48 -14 90 -27 93 -30 3 -2 -16 -76 -43 -162 -50 -167 -58 -230
-34 -259 8 -10 65 -41 125 -70 61 -29 119 -62 130 -75 19 -21 20 -35 18 -359
-1 -185 -6 -529 -12 -766 -6 -236 -16 -614 -21 -840 -6 -225 -15 -592 -20
-815 -11 -471 -26 -1085 -40 -1665 -16 -688 -20 -823 -26 -1017 l-7 -187 -46
-23 c-63 -32 -150 -31 -210 0 -143 75 -252 230 -301 427 -19 76 -24 129 -30
350 -9 342 -17 361 -144 353 -173 -11 -330 -183 -396 -433 -62 -237 -47 -546
50 -1050 17 -88 40 -207 51 -265 109 -565 115 -876 21 -1165 -35 -107 -97
-255 -215 -510 -129 -281 -178 -404 -215 -550 -24 -92 -26 -116 -25 -295 1
-264 26 -423 94 -585 138 -331 433 -526 909 -601 231 -36 807 -36 1125 1 613
71 908 264 1057 694 89 258 118 510 83 740 -33 222 -93 405 -260 792 -53 123
-113 271 -133 329 -35 102 -36 109 -36 250 0 167 6 202 79 440 68 218 98 339
126 505 26 152 30 334 10 415 -49 196 -201 314 -328 253 -52 -24 -69 -60 -77
-159 -3 -48 -11 -107 -18 -133 -45 -187 -179 -320 -353 -352 -66 -12 -166 -8
-206 9 l-26 10 -6 1229 c-4 675 -12 2058 -18 3072 -7 1370 -7 1851 1 1871 7
17 42 47 90 79 156 102 169 147 129 476 -26 223 -36 551 -19 680 15 120 42
226 82 323 26 63 29 81 24 125 -15 111 -97 271 -173 338 -96 84 -220 78 -299
-14 -16 -19 -34 -42 -39 -52 -10 -17 -16 -15 -95 19 -123 53 -155 77 -172 128
-17 49 -51 76 -135 108 -81 30 -131 33 -178 10z"/>
<path d="M2495 380 c-236 -21 -269 -57 -73 -79 238 -27 659 1 645 42 -2 6 -23
18 -48 25 -55 17 -386 24 -524 12z"/>
</g>
</svg>
