<svg xmlns="http://www.w3.org/2000/svg" viewBox="0 0 203.1 203.1"><path d="M201.6 15.4l-14-14a5 5 0 0 0-6.7-.3l-23 19a5 5 0 0 0-.3 7.4l1 1-55.8 55.7-6.7-6.7a20.7 20.7 0 0 0-29.8.5 37.7 37.7 0 0 0-6.6 8.9c-2.2 4.3-6.5 7-11.3 7.2a51.3 51.3 0 0 0-34.6 16c-19.4 20.7-18 54.7 3 75.9A57.7 57.7 0 0 0 57.4 203a51.4 51.4 0 0 0 51.5-48.5 13 13 0 0 1 6.9-11.1c3.8-2 7.3-4.6 10.3-7.8l.1-.2a20.6 20.6 0 0 0-.7-28.6l-6.7-6.7 55.8-55.7 1 1a5 5 0 0 0 7.3-.4l19-23a5 5 0 0 0-.3-6.7zM91.4 127.6a15.9 15.9 0 0 1-16 16 15.9 15.9 0 0 1-16-16 15.9 15.9 0 0 1 16-16 15.9 15.9 0 0 1 16 16zM63 177a5 5 0 0 1-7 0L26 147a5 5 0 1 1 7.1-7L63 169.9c2 2 2 5.1 0 7z"/></svg>